<svg width="19" height="20" viewBox="0 0 19 20" fill="none" xmlns="http://www.w3.org/2000/svg">
<g clip-path="url(#clip0)">
<path d="M14.7097 18.7097H4.59676C4.42751 18.7097 4.29031 18.8541 4.29031 19.0323V19.3548C4.29031 19.533 4.42751 19.6774 4.59676 19.6774H14.7097C14.8789 19.6774 15.0161 19.533 15.0161 19.3548V19.0323C15.0161 18.8541 14.8789 18.7097 14.7097 18.7097Z" fill="#3D87E0"/>
<path d="M14.9914 8.70969H12.2581V0.322578C12.2581 0.144414 12.1209 0 11.9516 0H7.35487L6.9683 8.96617L4.27628 9.23379L9.34597 16.2032L9.84469 16.3207L15.2307 9.23379C15.3913 9.02254 15.2484 8.70969 14.9914 8.70969Z" fill="#3D87E0"/>
<path d="M5.20965 19.3548C4.87114 19.3548 4.59675 19.066 4.59675 18.7097H4.29031C4.12105 18.7097 3.98386 18.8541 3.98386 19.0323V19.6774C3.98386 19.8556 4.12105 20 4.29031 20H14.7097C14.8789 20 15.0161 19.8556 15.0161 19.6774V19.3548H5.20965Z" fill="#3D87E0"/>
<path d="M5.90143 9.35484H6.74192C7.08043 9.35484 7.35482 9.06598 7.35482 8.70969V0H7.04837C6.87911 0 6.74192 0.144414 6.74192 0.322578V8.70969H4.00855C3.75161 8.70969 3.60874 9.02258 3.76927 9.23379L9.26068 16.4593C9.38336 16.6207 9.6166 16.6207 9.73928 16.4593L9.84467 16.3207L5.41971 10.3989C5.10343 9.97558 5.38988 9.35484 5.90143 9.35484Z" fill="#3D87E0"/>
</g>
<defs>
<clipPath id="clip0">
<rect width="19" height="20" fill="white"/>
</clipPath>
</defs>
</svg>
