<svg width="21" height="21" viewBox="0 0 21 21" fill="none" xmlns="http://www.w3.org/2000/svg">
<path d="M19.25 2.625H1.75001C0.784834 2.625 0 3.40983 0 4.37501V16.625C0 17.5902 0.784834 18.375 1.75001 18.375H19.25C20.2152 18.375 21 17.5902 21 16.625V4.37501C21 3.40983 20.2152 2.625 19.25 2.625ZM1.75001 3.49999H19.25C19.3145 3.49999 19.3713 3.52349 19.4318 3.53678C17.9167 4.92339 12.893 9.51928 11.1349 11.1033C10.9974 11.2272 10.7756 11.375 10.5 11.375C10.2245 11.375 10.0027 11.2272 9.86471 11.1028C8.10682 9.51911 3.08278 4.92298 1.56795 3.53686C1.62857 3.52357 1.6855 3.49999 1.75001 3.49999ZM0.874986 16.625V4.37501C0.874986 4.28929 0.900826 4.21153 0.923959 4.13319C2.08355 5.19451 5.58891 8.40127 7.86183 10.4682C5.59629 12.4142 2.09003 15.7385 0.921211 16.853C0.90058 16.7786 0.874986 16.7059 0.874986 16.625ZM19.25 17.5H1.75001C1.68012 17.5 1.61798 17.4756 1.55273 17.4601C2.76052 16.3087 6.28909 12.9653 8.5148 11.0613C8.80495 11.3245 9.06999 11.5644 9.27892 11.7527C9.63953 12.0783 10.0616 12.25 10.5 12.25C10.9384 12.25 11.3605 12.0782 11.7206 11.7531C11.9296 11.5648 12.1949 11.3246 12.4852 11.0613C14.711 12.9651 18.2391 16.3082 19.4473 17.4601C19.382 17.4756 19.32 17.5 19.25 17.5ZM20.125 16.625C20.125 16.7058 20.0994 16.7786 20.0788 16.853C18.9096 15.7379 15.4037 12.414 13.1382 10.4682C15.4112 8.40131 18.916 5.19483 20.076 4.1331C20.0992 4.21144 20.125 4.28925 20.125 4.37497V16.625Z" fill="white"/>
</svg>
