<svg id="LOGO_VECTORS_horizontal" data-name="LOGO VECTORS horizontal" xmlns="http://www.w3.org/2000/svg" viewBox="0 0 3999.97 283.95"><defs><style>.cls-1{fill:#dbdbdb;}</style></defs><path class="cls-1" d="M3962.55,266.91a9.55,9.55,0,0,1-2.37,1.18,122.4,122.4,0,0,1-59.93,15.77,133.16,133.16,0,0,1-18.92-1.38,123.54,123.54,0,0,1-70.57-34.89q-3.95-3.94-7.49-8.08L3839.54,209q2.16,2.56,4.73,5.13a107.47,107.47,0,0,0,8.28,7.09,76,76,0,0,0,41.79,15.18c1.84.13,3.68.2,5.52.2a76.45,76.45,0,0,0,39-10.65,26.58,26.58,0,0,0,12.84-16.75,29.13,29.13,0,0,0,1-7.49,26.59,26.59,0,0,0-16.16-24.25,28.25,28.25,0,0,0-11.24-2.36,32.18,32.18,0,0,0-7.69,1,49.28,49.28,0,0,0-6.9,2.37,99.6,99.6,0,0,1-31.14,8.28c-2.24.13-4.47.19-6.71.19a67.5,67.5,0,0,1-20.3-3q-20.7-6.51-31.54-17.35a79.18,79.18,0,0,1-12.22-15.77,73.53,73.53,0,0,1-7.69-55.59,71.46,71.46,0,0,1,11.83-25.63A70.23,70.23,0,0,1,3834,49.84c.39-.26,1.12-.72,2.17-1.38a19.24,19.24,0,0,1,2.36-1.18q28.79-15.76,60.13-15.77a141.43,141.43,0,0,1,19.51,1.38,122.7,122.7,0,0,1,71,36.27l-33.51,33.51a66.88,66.88,0,0,0-9.47-8.48A78.91,78.91,0,0,0,3904.43,79c-1.84-.13-3.68-.2-5.52-.2a76.53,76.53,0,0,0-39,10.64A26.64,26.64,0,0,0,3847,106.25a24.74,24.74,0,0,0-1.18,7.49,25.43,25.43,0,0,0,3.94,13.4A26.4,26.4,0,0,0,3862.18,138a28.42,28.42,0,0,0,11.24,2.36,31.6,31.6,0,0,0,7.68-1A39,39,0,0,0,3888,137a97.92,97.92,0,0,1,31.15-8.28c2.23-.13,4.46-.19,6.7-.2a67.5,67.5,0,0,1,20.3,3q20.51,6.51,31.54,17.35a78.87,78.87,0,0,1,12.23,15.77,72.21,72.21,0,0,1,9.26,27.6,67,67,0,0,1,.79,10,76.25,76.25,0,0,1-14.19,43.56,70.55,70.55,0,0,1-21.1,19.72Q3964.13,265.92,3962.55,266.91Z" transform="translate(0 0.04)"/><path class="cls-1" d="M3555,191.63a79,79,0,0,0,90.24,42.51,77.5,77.5,0,0,0,38.64-22.63,78.92,78.92,0,0,0,19.77-38.86l46.37,9.16a124.41,124.41,0,0,1-31.69,61.94,123,123,0,0,1-61.65,36.3,125.84,125.84,0,0,1-131.48-46.69,127.11,127.11,0,0,1-23.75-95.25,126.28,126.28,0,0,1,176.28-95.75A128.42,128.42,0,0,1,3711.8,65a126.15,126.15,0,0,1,39.68,77.67Zm52.09-110.5a78.85,78.85,0,0,0-58.76,63.41l140.4-35a78.89,78.89,0,0,0-81.64-28.4Z" transform="translate(0 0.04)"/><rect id="blind" class="cls-1" x="3537.84" y="77.48" width="161.38" height="74.49" transform="translate(93.68 940.8) rotate(-15)"/><path class="cls-1" d="M3462.68,255.24l-46.94,5.88-14.9-115.63a77.72,77.72,0,0,0-9.93-29.31,79.9,79.9,0,0,0-47-35.83,81.48,81.48,0,0,0-61,7.63,79.45,79.45,0,0,0-22.7,19.68,81.18,81.18,0,0,0-13.66,26.58,77.44,77.44,0,0,0-2.19,30.82l14.9,115.63-43.16,3.17s-3.35-191.93,6.65-204.8a126.91,126.91,0,0,1,209,13.83,122.75,122.75,0,0,1,16,46.76Z" transform="translate(0 0.04)"/><path class="cls-1" d="M3263.5,283.85h-47.31V167.29a77.67,77.67,0,0,0-6.11-30.3,81.54,81.54,0,0,0-17-24.68,82.62,82.62,0,0,0-25-16.7,81.51,81.51,0,0,0-61.5,0,79.55,79.55,0,0,0-25,16.7,81.24,81.24,0,0,0-17,24.68,77.49,77.49,0,0,0-6.11,30.3V283.85h-47.31V167.29a122.18,122.18,0,0,1,9.85-48.37,126.14,126.14,0,0,1,27-39.63,127.68,127.68,0,0,1,178.59,0,126.14,126.14,0,0,1,27,39.63,122,122,0,0,1,9.86,48.37Z" transform="translate(0 0.04)"/><path class="cls-1" d="M2831.36,31.54a125.94,125.94,0,0,1,116.31,77.07,127.26,127.26,0,0,1,0,98.17A125.56,125.56,0,0,1,2880.45,274a127.08,127.08,0,0,1-98.17,0,125.56,125.56,0,0,1-67.22-67.22,127.08,127.08,0,0,1,0-98.17,125.94,125.94,0,0,1,116.3-77.07ZM2752.51,157.7a79.77,79.77,0,0,0,6.11,30.75,82.73,82.73,0,0,0,17,25,79.45,79.45,0,0,0,86.53,17,82.73,82.73,0,0,0,25-17,79.15,79.15,0,0,0,0-111.54,82.73,82.73,0,0,0-25-17,79.73,79.73,0,0,0-30.75-6.11,78.75,78.75,0,0,0-78.85,78.85Z" transform="translate(0 0.04)"/><path class="cls-1" d="M2643.31,159.57l15.72.35A126.28,126.28,0,1,1,2502.38,35.18q42.07-10.48,81.61,7.08a127.49,127.49,0,0,1,59.2,54.11l-13.72,7.69-27.65,15.43a77.72,77.72,0,0,0-37.12-34,76.57,76.57,0,0,0-50.87-4.38A77.68,77.68,0,0,0,2465.28,117a82.5,82.5,0,0,0-10.39,28.4,80.47,80.47,0,0,0,14.87,59.67,82.67,82.67,0,0,0,22.51,20.19,79.34,79.34,0,0,0,28.39,10.39,78.46,78.46,0,0,0,31.34-1.48,76.53,76.53,0,0,0,42.85-27.75,77.66,77.66,0,0,0,16.82-47.46Z" transform="translate(0 0.04)"/><path class="cls-1" d="M2103.41,191.63a79,79,0,0,0,90.24,42.51,77.5,77.5,0,0,0,38.65-22.63,78.92,78.92,0,0,0,19.77-38.86l46.37,9.16a124.45,124.45,0,0,1-31.69,61.94,123.06,123.06,0,0,1-61.65,36.3,125.86,125.86,0,0,1-131.49-46.69,127.11,127.11,0,0,1-23.75-95.25,126.28,126.28,0,0,1,176.28-95.75A128.47,128.47,0,0,1,2260.22,65a124.5,124.5,0,0,1,36.78,62.2,128.29,128.29,0,0,1,2.86,15.54ZM2155.5,81.15a78.83,78.83,0,0,0-58.75,63.41l140.39-35a78.85,78.85,0,0,0-81.64-28.4Z" transform="translate(0 0.04)"/><path class="cls-1" d="M1986.59,159.57l15.73.35a126,126,0,0,1-57,103.18,124.2,124.2,0,0,1-38.64,17,125.86,125.86,0,0,1-131.49-46.69,127.11,127.11,0,0,1-23.75-95.25,126,126,0,0,1,94.25-102.93q42.07-10.48,81.6,7.08a127.51,127.51,0,0,1,59.21,54.11l-13.73,7.69-27.64,15.43a77.69,77.69,0,0,0-37.13-34,76.57,76.57,0,0,0-50.87-4.38,78.8,78.8,0,0,0-28.36,13.37,79.66,79.66,0,0,0-20.19,22.5,82.78,82.78,0,0,0-10.39,28.4,80.41,80.41,0,0,0,14.88,59.67,82.49,82.49,0,0,0,22.5,20.19,79.39,79.39,0,0,0,28.4,10.39,78.5,78.5,0,0,0,31.31-1.51,76.56,76.56,0,0,0,42.86-27.75A77.65,77.65,0,0,0,1955,159Z" transform="translate(0 0.04)"/><path class="cls-1" d="M1569.6,31.54A125.9,125.9,0,0,1,1695.76,157.7V276h-47.31V256.26A126.25,126.25,0,1,1,1569.6,31.54Zm0,205a79.73,79.73,0,0,0,30.75-6.11,82.55,82.55,0,0,0,25-17,79.18,79.18,0,0,0,0-111.54,83,83,0,0,0-25-17,79,79,0,0,0-103.5,103.49,82.73,82.73,0,0,0,17,25,77.67,77.67,0,0,0,55.78,23.06Z" transform="translate(0 0.04)"/><path class="cls-1" d="M1341.73,0H1389V283.86h-47.31Z" transform="translate(0 0.04)"/><circle id="oeil" class="cls-1" cx="1200.43" cy="170.12" r="20.19"/><path class="cls-1" d="M1161,31.54a125.89,125.89,0,0,1,116.3,77.07,127.08,127.08,0,0,1,0,98.17A125.56,125.56,0,0,1,1210.08,274a127.08,127.08,0,0,1-98.17,0,125.56,125.56,0,0,1-67.22-67.22,127.26,127.26,0,0,1,0-98.17A125.89,125.89,0,0,1,1161,31.54ZM1082.15,157.7a79.73,79.73,0,0,0,6.11,30.75,82.55,82.55,0,0,0,17,25,79.47,79.47,0,0,0,86.54,17,82.73,82.73,0,0,0,25-17,79.15,79.15,0,0,0,0-111.54,82.73,82.73,0,0,0-25-17,79.77,79.77,0,0,0-30.75-6.11,78.46,78.46,0,0,0-78.85,78.07v.78Z" transform="translate(0 0.04)"/><path class="cls-1" d="M951.29,266.91a9.48,9.48,0,0,1-2.36,1.18A122.4,122.4,0,0,1,889,283.86a133.16,133.16,0,0,1-18.92-1.38,123.54,123.54,0,0,1-70.57-34.89q-3.94-3.94-7.49-8.08L828.29,209q2.16,2.56,4.73,5.13a107.47,107.47,0,0,0,8.28,7.09,76,76,0,0,0,41.79,15.18c1.84.14,3.68.2,5.52.2a76.45,76.45,0,0,0,39-10.65,26.58,26.58,0,0,0,12.84-16.75,29.13,29.13,0,0,0,1-7.49,26.57,26.57,0,0,0-16.17-24.25A28.27,28.27,0,0,0,914,175.05a32.18,32.18,0,0,0-7.69,1,49.28,49.28,0,0,0-6.9,2.37,99.73,99.73,0,0,1-31.15,8.28c-2.23.13-4.46.2-6.7.19a67.45,67.45,0,0,1-20.3-3q-20.7-6.51-31.54-17.35a79.18,79.18,0,0,1-12.22-15.77,74.89,74.89,0,0,1-9.47-27.6,76.76,76.76,0,0,1-.59-9.46,74.73,74.73,0,0,1,2.37-18.53,71.38,71.38,0,0,1,11.83-25.63,70.23,70.23,0,0,1,21.09-19.71c.39-.26,1.11-.72,2.17-1.38a19.24,19.24,0,0,1,2.36-1.18Q856,31.52,887.39,31.51a141.43,141.43,0,0,1,19.51,1.38,122.7,122.7,0,0,1,71,36.27l-33.51,33.51a66.88,66.88,0,0,0-9.47-8.48A78.91,78.91,0,0,0,893.13,79c-1.84-.13-3.68-.2-5.52-.2a76.53,76.53,0,0,0-39,10.64,26.66,26.66,0,0,0-12.81,16.76,24.74,24.74,0,0,0-1.18,7.49,25.43,25.43,0,0,0,3.94,13.4A26.31,26.31,0,0,0,851,138a28.34,28.34,0,0,0,11.23,2.36,31.68,31.68,0,0,0,7.69-1,39.87,39.87,0,0,0,6.9-2.37A97.92,97.92,0,0,1,908,128.7c2.23-.13,4.47-.19,6.7-.2a67.45,67.45,0,0,1,20.3,3q20.5,6.51,31.54,17.35a79.6,79.6,0,0,1,12.23,15.77,72.21,72.21,0,0,1,9.26,27.6,67,67,0,0,1,.79,10,76.25,76.25,0,0,1-14.19,43.56,70.55,70.55,0,0,1-21.1,19.72C953.07,265.79,952.34,266.25,951.29,266.91Z" transform="translate(0 0.04)"/><polygon id="angry" class="cls-1" points="560.32 145.05 478.58 104.45 527.44 63.22 593.32 78.61 560.32 145.05"/><path class="cls-1" d="M479.69,191.63a79,79,0,0,0,90.24,42.52,77.5,77.5,0,0,0,38.64-22.63,78.92,78.92,0,0,0,19.77-38.86l46.37,9.16A124.49,124.49,0,0,1,643,243.75a123,123,0,0,1-61.65,36.3,125.84,125.84,0,0,1-131.48-46.69,127.1,127.1,0,0,1-23.74-95.21A126.28,126.28,0,0,1,602.41,42.4,128.42,128.42,0,0,1,636.48,65a126.16,126.16,0,0,1,39.68,77.67ZM531.77,81.15A78.87,78.87,0,0,0,473,144.54l140.4-35a78.87,78.87,0,0,0-81.65-28.4Z" transform="translate(0 0.04)"/><path class="cls-1" d="M403.34,283.86H356V165.58a78.51,78.51,0,0,0-48.12-72.75,78.61,78.61,0,0,0-86.54,17,82.52,82.52,0,0,0-17,25,79.73,79.73,0,0,0-6.11,30.75V283.86H151V0h47.32V67a126.1,126.1,0,0,1,205,98.56Z" transform="translate(0 0.04)"/><path class="cls-1" d="M90.09,0V92.06l42.77,24.64-23.65,41-19.12-11V283.9H42.78V119.3L0,94.62l23.66-41,19.12,11V0Z" transform="translate(0 0.04)"/></svg>