<svg width="532" height="74" viewBox="0 0 532 74" fill="none" xmlns="http://www.w3.org/2000/svg">
<path d="M0.398867 50.3C0.398867 46.04 1.35887 42.29 3.27887 39.05C5.25887 35.81 7.92887 33.29 11.2889 31.49C14.7089 29.63 18.5189 28.7 22.7189 28.7C26.9789 28.7 30.7889 29.63 34.1489 31.49C37.5089 33.29 40.1489 35.81 42.0689 39.05C44.0489 42.29 45.0389 46.04 45.0389 50.3C45.0389 54.5 44.0489 58.25 42.0689 61.55C40.1489 64.79 37.5089 67.34 34.1489 69.2C30.7889 71 26.9789 71.9 22.7189 71.9C18.5189 71.9 14.7089 71 11.2889 69.2C7.92887 67.34 5.25887 64.79 3.27887 61.55C1.35887 58.25 0.398867 54.5 0.398867 50.3ZM10.3889 50.3C10.3889 54.14 11.5589 57.29 13.8989 59.75C16.2989 62.15 19.2389 63.35 22.7189 63.35C26.2589 63.35 29.1989 62.15 31.5389 59.75C33.8789 57.29 35.0489 54.14 35.0489 50.3C35.0489 46.4 33.8789 43.25 31.5389 40.85C29.1989 38.45 26.2589 37.25 22.7189 37.25C19.2389 37.25 16.2989 38.45 13.8989 40.85C11.5589 43.25 10.3889 46.4 10.3889 50.3ZM136.047 8H146.757L137.667 29.6H130.827L136.047 8ZM240.256 0.799997H249.976V71H240.256V0.799997ZM340.254 50.3C340.254 46.04 341.214 42.29 343.134 39.05C345.114 35.81 347.784 33.29 351.144 31.49C354.564 29.63 358.374 28.7 362.574 28.7C366.834 28.7 370.644 29.63 374.004 31.49C377.364 33.29 380.004 35.81 381.924 39.05C383.904 42.29 384.894 46.04 384.894 50.3C384.894 54.5 383.904 58.25 381.924 61.55C380.004 64.79 377.364 67.34 374.004 69.2C370.644 71 366.834 71.9 362.574 71.9C358.374 71.9 354.564 71 351.144 69.2C347.784 67.34 345.114 64.79 343.134 61.55C341.214 58.25 340.254 54.5 340.254 50.3ZM350.244 50.3C350.244 54.14 351.414 57.29 353.754 59.75C356.154 62.15 359.094 63.35 362.574 63.35C366.114 63.35 369.054 62.15 371.394 59.75C373.734 57.29 374.904 54.14 374.904 50.3C374.904 46.4 373.734 43.25 371.394 40.85C369.054 38.45 366.114 37.25 362.574 37.25C359.094 37.25 356.154 38.45 353.754 40.85C351.414 43.25 350.244 46.4 350.244 50.3ZM467.589 29.6H478.119L487.839 54.17L499.359 26.45L511.419 54.35L521.139 29.6H531.759L512.319 73.97L499.359 45.98L486.939 73.97L467.589 29.6Z" fill="#DBDBDB"/>
</svg>
