<svg width="524" height="90" viewBox="0 0 524 90" fill="none" xmlns="http://www.w3.org/2000/svg">
<path d="M0.556446 23H17.6564C21.7364 23 25.3664 23.78 28.5464 25.34C31.7864 26.84 34.3364 29 36.1964 31.82C38.1164 34.64 39.0764 38 39.0764 41.9C39.0764 46.64 37.6664 50.6 34.8464 53.78C32.0864 56.9 28.4864 59 24.0464 60.08L42.8564 86H33.4064L15.8564 60.8H8.20645V86H0.556446V23ZM17.6564 29.75H8.20645V54.05H17.6564C21.7364 54.05 25.0364 53 27.5564 50.9C30.1364 48.74 31.4264 45.74 31.4264 41.9C31.4264 38 30.1364 35 27.5564 32.9C25.0364 30.8 21.7364 29.75 17.6564 29.75ZM114.818 8.14999L104.918 16.7L100.418 13.1L114.818 0.499996L129.218 13.1L124.718 16.7L114.818 8.14999ZM95.9178 23H131.918V30.2H103.568V48.2H130.118V55.4H103.568V78.8H131.918V86H95.9178V23ZM212.9 71.78L233.6 23H242.15L212.9 89.15L183.65 23H192.2L212.9 71.78ZM294.814 23H330.814V30.2H302.464V48.2H329.014V55.4H302.464V78.8H330.814V86H294.814V23ZM389.297 23H406.397C410.477 23 414.107 23.78 417.287 25.34C420.527 26.84 423.077 29 424.937 31.82C426.857 34.64 427.817 38 427.817 41.9C427.817 46.64 426.407 50.6 423.587 53.78C420.827 56.9 417.227 59 412.787 60.08L431.597 86H422.147L404.597 60.8H396.947V86H389.297V23ZM406.397 29.75H396.947V54.05H406.397C410.477 54.05 413.777 53 416.297 50.9C418.877 48.74 420.167 45.74 420.167 41.9C420.167 38 418.877 35 416.297 32.9C413.777 30.8 410.477 29.75 406.397 29.75ZM523.178 67.55C523.178 71.69 522.218 75.14 520.298 77.9C518.438 80.6 515.888 82.64 512.648 84.02C509.468 85.34 505.838 86 501.758 86H484.658V23H500.858C506.498 23 511.028 24.29 514.448 26.87C517.868 29.45 519.578 33.41 519.578 38.75C519.578 41.99 518.648 44.72 516.788 46.94C514.928 49.1 512.378 50.66 509.138 51.62C513.278 52.46 516.638 54.2 519.218 56.84C521.858 59.42 523.178 62.99 523.178 67.55ZM500.858 29.75H492.308V48.47H500.858C504.038 48.47 506.678 47.66 508.778 46.04C510.878 44.42 511.928 42.14 511.928 39.2C511.928 36.2 510.878 33.89 508.778 32.27C506.678 30.59 504.038 29.75 500.858 29.75ZM492.308 79.25H501.758C505.838 79.25 509.138 78.2 511.658 76.1C514.238 73.94 515.528 70.94 515.528 67.1C515.528 63.2 514.238 60.23 511.658 58.19C509.138 56.15 505.838 55.13 501.758 55.13H492.308V79.25Z" fill="#DBDBDB"/>
</svg>
