<svg width="30" height="30" viewBox="0 0 30 30" fill="none" xmlns="http://www.w3.org/2000/svg">
<path d="M15 0.46875C6.99023 0.46875 0.46875 6.98438 0.46875 15C0.46875 23.0098 6.99023 29.5312 15 29.5312C23.0098 29.5312 29.5312 23.0098 29.5312 15C29.5312 6.98438 23.0098 0.46875 15 0.46875ZM1.93359 15C1.93359 13.1074 2.33789 11.3086 3.06445 9.68555L9.29883 26.7598C4.93945 24.6387 1.93359 20.168 1.93359 15ZM15 28.0664C13.7168 28.0664 12.4805 27.8789 11.3086 27.5332L15.2285 16.1426L19.2422 27.1465C19.2715 27.2109 19.3008 27.2695 19.3359 27.3281C17.9824 27.8027 16.5234 28.0664 15 28.0664ZM16.7988 8.87695C17.584 8.83594 18.293 8.75391 18.293 8.75391C18.9961 8.67188 18.9141 7.63477 18.2109 7.67578C18.2109 7.67578 16.0957 7.83984 14.7305 7.83984C13.4473 7.83984 11.291 7.67578 11.291 7.67578C10.5879 7.63477 10.5059 8.71289 11.209 8.75391C11.209 8.75391 11.877 8.83594 12.5801 8.87695L14.6133 14.4551L11.7539 23.0273L6.99609 8.87695C7.78125 8.83594 8.49023 8.75391 8.49023 8.75391C9.19336 8.67188 9.11133 7.63477 8.4082 7.67578C8.4082 7.67578 6.29297 7.83984 4.92773 7.83984C4.68164 7.83984 4.39453 7.83398 4.08398 7.82227C6.42188 4.27734 10.4355 1.93359 15 1.93359C18.3984 1.93359 21.498 3.23438 23.8242 5.36133C23.7656 5.35547 23.7129 5.34961 23.6543 5.34961C22.3711 5.34961 21.4629 6.46875 21.4629 7.66992C21.4629 8.74805 22.084 9.65625 22.7461 10.7344C23.2441 11.6016 23.8242 12.7207 23.8242 14.3379C23.8242 15.457 23.3965 16.752 22.8281 18.5625L21.5273 22.916L16.7988 8.87695ZM21.5684 26.291L25.5586 14.7539C26.3027 12.8906 26.5547 11.4023 26.5547 10.0723C26.5547 9.5918 26.5254 9.14648 26.4668 8.73047C27.4863 10.5938 28.0664 12.7266 28.0664 15C28.0664 19.8223 25.4531 24.0293 21.5684 26.291Z" fill="white" fill-opacity="0.75"/>
</svg>
