<svg width="23" height="30" viewBox="0 0 23 30" fill="none" xmlns="http://www.w3.org/2000/svg">
<path d="M0.827637 5.61284C0.827637 2.51295 3.36323 0 6.49107 0H16.2088C19.3366 0 21.8722 2.51295 21.8722 5.61284C21.8722 7.5757 20.8556 9.30328 19.3156 10.3065C20.8556 11.3097 21.8722 13.0372 21.8722 15.0001C21.8722 18.1 19.3366 20.613 16.2088 20.613H16.0858C14.6195 20.613 13.2833 20.0607 12.2775 19.1545V24.3262C12.2775 27.4674 9.6756 30 6.52158 30C3.40156 30 0.827637 27.4947 0.827637 24.3871C0.827637 22.4244 1.8442 20.6969 3.38401 19.6937C1.8442 18.6904 0.827637 16.9629 0.827637 15.0001C0.827637 13.0372 1.84429 11.3097 3.3842 10.3065C1.84429 9.30328 0.827637 7.5757 0.827637 5.61284ZM10.4224 11.2258H6.49107C4.38778 11.2258 2.68274 12.9156 2.68274 15.0001C2.68274 17.0766 4.37463 18.7614 6.46672 18.7744C6.47482 18.7743 6.48292 18.7743 6.49107 18.7743H10.4224V11.2258ZM12.2775 15.0001C12.2775 17.0846 13.9825 18.7744 16.0858 18.7744H16.2088C18.3121 18.7744 20.0171 17.0846 20.0171 15.0001C20.0171 12.9156 18.3121 11.2258 16.2088 11.2258H16.0858C13.9825 11.2258 12.2775 12.9156 12.2775 15.0001ZM6.49107 20.613C6.48292 20.613 6.47482 20.6129 6.46672 20.6129C4.37463 20.6259 2.68274 22.3107 2.68274 24.3871C2.68274 26.464 4.41055 28.1614 6.52158 28.1614C8.66663 28.1614 10.4224 26.4367 10.4224 24.3262V20.613H6.49107ZM6.49107 1.83854C4.38778 1.83854 2.68274 3.52836 2.68274 5.61284C2.68274 7.69734 4.38778 9.38713 6.49107 9.38713H10.4224V1.83854H6.49107ZM12.2775 9.38713H16.2088C18.3121 9.38713 20.0171 7.69734 20.0171 5.61284C20.0171 3.52836 18.3121 1.83854 16.2088 1.83854H12.2775V9.38713Z" fill="white" fill-opacity="0.75"/>
</svg>
