<svg width="139" height="139" viewBox="0 0 139 139" fill="none" xmlns="http://www.w3.org/2000/svg">
<circle cx="69.5" cy="69.5" r="68.75" fill="white" stroke="black" stroke-width="1.5"/>
<path d="M68.2554 69.2962C68.2554 69.0448 68.1552 68.8032 67.9773 68.6253L52.4303 53.0796C52.0597 52.709 51.459 52.709 51.0884 53.0796L47.2781 56.8895C47.1001 57.067 47 57.309 47 57.56C47 57.8115 47.1001 58.053 47.2781 58.231L58.3432 69.2962L47.2781 80.362C47.1001 80.54 47 80.7815 47 81.033C47 81.2845 47.1001 81.526 47.2781 81.704L51.0884 85.5139C51.2739 85.6994 51.5164 85.7919 51.7594 85.7919C52.0023 85.7919 52.2448 85.6994 52.4303 85.5139L67.9773 69.9667C68.1552 69.7893 68.2554 69.5487 68.2554 69.2962Z" fill="black"/>
<path d="M91.051 80.1267H66.9201C66.3962 80.1267 65.971 80.5519 65.971 81.0757V85.2501C65.971 85.774 66.3962 86.1991 66.9201 86.1991H91.051C91.5748 86.1991 92 85.774 92 85.2501V81.0757C92 80.5519 91.5748 80.1267 91.051 80.1267Z" fill="black"/>
</svg>
