<svg width="19" height="22" viewBox="0 0 19 22" fill="none" xmlns="http://www.w3.org/2000/svg">
<path d="M4.25295 19.2509H0.313839V6.39899H4.25295V19.2509ZM2.28127 4.64587C1.02167 4.64587 0 3.58883 0 2.31266C9.01566e-09 1.69967 0.240348 1.11179 0.668169 0.678334C1.09599 0.244883 1.67624 0.00137329 2.28127 0.00137329C2.8863 0.00137329 3.46655 0.244883 3.89438 0.678334C4.3222 1.11179 4.56254 1.69967 4.56254 2.31266C4.56254 3.58883 3.54045 4.64587 2.28127 4.64587ZM18.9958 19.2509H15.0651V12.9947C15.0651 11.5037 15.0354 9.59157 13.0171 9.59157C10.9691 9.59157 10.6553 11.2115 10.6553 12.8873V19.2509H6.7204V6.39899H10.4983V8.15212H10.5535C11.0794 7.14235 12.364 6.07673 14.2805 6.07673C18.2671 6.07673 19 8.73649 19 12.1912V19.2509H18.9958Z" fill="white"/>
</svg>
