<svg width="139" height="139" viewBox="0 0 139 139" fill="none" xmlns="http://www.w3.org/2000/svg">
<circle cx="69.5" cy="69.5" r="68.75" fill="white" stroke="black" stroke-width="1.5"/>
<path d="M88.601 39C88.1075 39 87.7074 39.4001 87.7074 39.8936V39.955H84.7193V39.8936C84.7193 39.4001 84.3192 39 83.8257 39C83.3322 39 82.9322 39.4001 82.9322 39.8936V44.7303H81.9153C81.4218 44.7303 81.0217 45.1304 81.0217 45.6239C81.0217 46.1173 81.4218 46.5174 81.9153 46.5174H82.9322V68.6064H56.0677V46.5174H78.0949C78.5884 46.5174 78.9885 46.1173 78.9885 45.6239C78.9885 45.1304 78.5884 44.7303 78.0949 44.7303H56.0677V39.8936C56.0677 39.4001 55.6677 39 55.1742 39C54.6807 39 54.2806 39.4001 54.2806 39.8936V39.955H51.2926V39.8936C51.2926 39.4001 50.8925 39 50.399 39C49.9055 39 49.5055 39.4001 49.5055 39.8936V99.1064C49.5055 99.5999 49.9055 100 50.399 100C50.8925 100 51.2926 99.5999 51.2926 99.1064V99.045H54.2806V99.1064C54.2806 99.5999 54.6807 100 55.1742 100C55.6677 100 56.0677 99.5999 56.0677 99.1064V94.2697H57.0846C57.5781 94.2697 57.9781 93.8696 57.9781 93.3761C57.9781 92.8827 57.5781 92.4826 57.0846 92.4826H56.0677V70.3936H82.932V92.4826H60.905C60.4115 92.4826 60.0114 92.8827 60.0114 93.3761C60.0114 93.8696 60.4115 94.2697 60.905 94.2697H82.9322V99.1064C82.9322 99.5999 83.3322 100 83.8257 100C84.3192 100 84.7193 99.5999 84.7193 99.1064V99.045H87.7074V99.1064C87.7074 99.5999 88.1075 100 88.601 100C89.0945 100 89.4945 99.5999 89.4945 99.1064V39.8936C89.4945 39.4001 89.0945 39 88.601 39ZM51.2925 56.0678H54.2805V59.056H51.2925V56.0678ZM51.2925 65.6183H54.2805V68.6064H51.2925V65.6183ZM51.2925 79.944H54.2805V82.9322H51.2925V79.944ZM51.2925 84.7193H54.2805V87.7074H51.2925V84.7193ZM51.2925 92.4826V89.4944H54.2805V92.4826H51.2925ZM54.2806 97.2579H51.2926V94.2697H54.2806V97.2579ZM54.2806 78.1569H51.2926V75.1687H54.2806V78.1569ZM54.2806 73.3817H51.2926V70.3936H54.2806V73.3817ZM54.2806 63.8313H51.2926V60.8431H54.2806V63.8313ZM54.2806 54.2807H51.2926V51.2926H54.2806V54.2807ZM54.2806 49.5055H51.2926V46.5174H54.2806V49.5055ZM54.2806 44.7303H51.2926V41.7421H54.2806V44.7303ZM84.7191 41.7421H87.7073V44.7303H84.7191V41.7421ZM84.7191 60.8431H87.7073V63.8313H84.7191V60.8431ZM84.7191 65.6183H87.7073V68.6064H84.7191V65.6183ZM87.7073 97.2579H84.7191V94.2697H87.7073V97.2579ZM87.7073 92.4826H84.7191V89.4944H87.7073V92.4826ZM87.7073 87.7074H84.7191V84.7193H87.7073V87.7074ZM87.7074 82.9322H84.7193V79.944H87.7074V82.9322ZM87.7074 78.1569H84.7193V75.1687H87.7074V78.1569ZM87.7074 73.3817H84.7193V70.3936H87.7074V73.3817ZM87.7074 59.056H84.7193V56.0678H87.7074V59.056ZM87.7074 54.2807H84.7193V51.2926H87.7074V54.2807ZM87.7074 49.5056H84.7193V46.5174H87.7074V49.5056Z" fill="black"/>
</svg>
