<svg width="139" height="139" viewBox="0 0 139 139" fill="none" xmlns="http://www.w3.org/2000/svg">
<circle cx="69.5" cy="69.5" r="68.75" fill="white" stroke="black" stroke-width="1.5"/>
<path d="M70.0378 75.4617C70.0378 75.4617 69.7379 74.8472 69 74.8472C68.2622 74.8472 67.9656 75.4597 67.9644 75.4617L60.2216 89.448C59.9086 90.0135 60.1117 90.7282 60.6723 91.0501C60.8284 91.1398 64.4966 93.2982 64.4966 97.8164C64.4966 98.47 65.0266 99 65.6803 99H72.3198C72.9735 99 73.5035 98.47 73.5035 97.8164C73.5035 93.2982 77.1717 91.1398 77.3236 91.0525C77.8902 90.7335 78.0935 90.0169 77.7785 89.4479C77.7784 89.448 70.0394 75.4646 70.0378 75.4617ZM71.202 96.6327H66.798C66.3856 92.9831 64.1352 90.7059 62.8094 89.6612L67.8163 80.614V85.4738C67.8163 86.1275 68.3463 86.6575 69 86.6575C69.6536 86.6575 70.1837 86.1275 70.1837 85.4738V80.614L75.1907 89.6613C73.8649 90.7059 71.6144 92.9831 71.202 96.6327Z" fill="black"/>
<path d="M92.9677 41H88.0132C87.3596 41 86.8296 41.5299 86.8296 42.1837V47.1382C86.8296 47.7919 87.3596 48.3218 88.0132 48.3218H88.9779C87.4741 56.616 80.983 63.1285 72.661 64.6383V63.6741C72.661 63.0205 72.1309 62.4904 71.4773 62.4904H66.5226C65.8689 62.4904 65.3389 63.0205 65.3389 63.6741V64.6383C57.0157 63.1284 50.5262 56.6193 49.022 48.3218H49.9869C50.6405 48.3218 51.1706 47.7919 51.1706 47.1382V42.1837C51.1706 41.5299 50.6405 41 49.9869 41H45.0323C44.3786 41 43.8486 41.5299 43.8486 42.1837V47.1382C43.8486 47.7919 44.3786 48.3218 45.0323 48.3218H46.6217C47.3712 52.9068 49.5486 57.2147 52.8225 60.5479C54.5993 62.357 56.6691 63.8484 58.9207 64.9676H50.7694C50.4035 64.467 49.8138 64.1405 49.1464 64.1405C48.0355 64.1405 47.1353 65.0406 47.1353 66.1513C47.1353 67.262 48.0355 68.1623 49.1464 68.1623C49.8138 68.1623 50.4038 67.8357 50.7695 67.335H65.3389V68.6287C65.3389 69.2825 65.8689 69.8124 66.5226 69.8124H71.4773C72.1309 69.8124 72.661 69.2825 72.661 68.6287V67.335H87.2304C87.5962 67.8357 88.186 68.1623 88.8538 68.1623C89.9644 68.1623 90.8646 67.2619 90.8646 66.1513C90.8646 65.0406 89.9644 64.1405 88.8538 64.1405C88.186 64.1405 87.5963 64.467 87.2305 64.9676H79.0791C81.3355 63.8458 83.4096 62.3507 85.1889 60.5365C88.4563 57.2051 90.6296 52.9011 91.3782 48.3218H92.9677C93.6214 48.3218 94.1514 47.7919 94.1514 47.1382V42.1837C94.1514 41.5299 93.6215 41 92.9677 41ZM46.2159 43.3673H48.8032V45.9545H46.2159V43.3673ZM70.2938 67.445H67.7062V64.8578H70.2936V67.445H70.2938ZM91.7841 45.9545H89.1969V43.3673H91.7841V45.9545Z" fill="black"/>
</svg>
