<svg id="Calque_1" data-name="Calque 1" xmlns="http://www.w3.org/2000/svg" xmlns:xlink="http://www.w3.org/1999/xlink" viewBox="0 0 3000 3000"><defs><style>.cls-1{fill:url(#Dégradé_sans_nom_72);}.cls-2{fill:url(#Dégradé_sans_nom_64);}.cls-3{fill:none;stroke:#f5f5f5;stroke-miterlimit:10;stroke-width:67.44px;}.cls-4{fill:#3d87e0;}</style><linearGradient id="Dégradé_sans_nom_72" x1="2370.95" y1="3008.53" x2="629.05" y2="-8.53" gradientUnits="userSpaceOnUse"><stop offset="0" stop-color="#191919"/><stop offset="0.43" stop-color="#121212"/><stop offset="1"/></linearGradient><linearGradient id="Dégradé_sans_nom_64" x1="2370.95" y1="3008.53" x2="629.05" y2="-8.53" gradientUnits="userSpaceOnUse"><stop offset="0" stop-color="#383838"/><stop offset="0.29" stop-color="#353535"/><stop offset="0.54" stop-color="#2a2a2a"/><stop offset="0.78" stop-color="#181818"/><stop offset="1"/></linearGradient></defs><rect class="cls-1" width="3000" height="3000" rx="839.5"/><path class="cls-2" d="M2160.5.93a844.31,844.31,0,0,1,169,17,834,834,0,0,1,299.85,126.17,841,841,0,0,1,303.82,369A833.54,833.54,0,0,1,2982,670.5a844.31,844.31,0,0,1,17,169v1321a844.31,844.31,0,0,1-17,169,834,834,0,0,1-126.17,299.85,841,841,0,0,1-369,303.82A833.54,833.54,0,0,1,2329.5,2982a844.31,844.31,0,0,1-169,17H839.5a844.31,844.31,0,0,1-169-17,834,834,0,0,1-299.85-126.17,841,841,0,0,1-303.82-369A833.54,833.54,0,0,1,18,2329.5a844.31,844.31,0,0,1-17-169V839.5a844.31,844.31,0,0,1,17-169A834,834,0,0,1,144.14,370.65a841,841,0,0,1,369-303.82A833.54,833.54,0,0,1,670.5,18a844.31,844.31,0,0,1,169-17h1321m0-.93H839.5C375.86,0,0,375.86,0,839.5v1321C0,2624.14,375.86,3000,839.5,3000h1321c463.64,0,839.5-375.86,839.5-839.5V839.5C3000,375.86,2624.14,0,2160.5,0Z" transform="translate(0 0)"/><polyline class="cls-3" points="543.9 2399 675.12 1288.99 2377.5 2399.5"/><g id="Calque_2" data-name="Calque 2"><polygon class="cls-4" points="718 864 825 464 2104 1289 2485 711 2485 1989 718 864"/></g></svg>